<?xml version="1.0" encoding="UTF-8"?>
<svg version="1.1" xmlns="http://www.w3.org/2000/svg" width="736" height="560">
<path d="M0 0 C242.88 0 485.76 0 736 0 C736 184.8 736 369.6 736 560 C493.12 560 250.24 560 0 560 C0 375.2 0 190.4 0 0 Z " fill="#FDFDFD" transform="translate(0,0)"/>
<path d="M0 0 C1.8329343 3.11216969 0.88471765 5.46492506 0.125 8.91015625 C-0.60774092 11.58428985 -1.44188747 14.21551282 -2.3125 16.84765625 C-3.82693053 21.48082503 -5.19593646 26.09406514 -6.34545898 30.83129883 C-7.32773709 34.68749893 -8.5232685 38.48077477 -9.6875 42.28515625 C-11.67251019 48.82540172 -13.58043066 55.3776871 -15.375 61.97265625 C-17.30421309 69.04774041 -19.46881545 76.02831264 -21.71264648 83.00927734 C-23.63826377 89.04416316 -25.29222164 95.10986818 -26.8828125 101.2421875 C-28.11649179 105.80291528 -29.52239704 110.29624139 -30.95166016 114.79858398 C-32.68685135 120.27268336 -34.32447761 125.77103685 -35.93164062 131.28393555 C-37.03981232 135.0806244 -38.16211029 138.87211378 -39.3125 142.65625 C-41.90441214 151.18845717 -44.38974298 159.73126424 -46.6875 168.34765625 C-49.37365179 178.38980085 -52.43832149 188.29815948 -55.54907227 198.21582031 C-59.30703306 210.22030689 -62.80590364 222.28762204 -66.10546875 234.42578125 C-68.62509761 243.67018461 -71.38710913 252.80240507 -74.35473633 261.91381836 C-76.47966688 268.48882259 -78.25748071 275.07264687 -79.7578125 281.81640625 C-81.18062383 285.75649915 -82.28423465 288.65397338 -85.875 290.91015625 C-91.02129715 291.81450039 -96.14757214 291.68135665 -101.3515625 291.6015625 C-102.88422293 291.59798389 -104.41689003 291.59662829 -105.94955444 291.59739685 C-109.15591846 291.59271227 -112.36127276 291.567922 -115.56738281 291.52758789 C-119.67793637 291.47653081 -123.78738461 291.46514772 -127.89821815 291.46742344 C-131.06042032 291.46660805 -134.22238065 291.45016172 -137.38450241 291.42841911 C-138.90035549 291.41887231 -140.41623595 291.41295997 -141.93211746 291.41073799 C-144.0484827 291.40423693 -146.16367241 291.37799041 -148.27978516 291.34594727 C-149.48381989 291.33451187 -150.68785461 291.32307648 -151.92837524 291.31129456 C-154.875 290.91015625 -154.875 290.91015625 -156.79794312 289.58677673 C-157.875 287.91015625 -157.875 287.91015625 -157.703125 284.6484375 C-156.89607476 281.0052909 -155.87178764 277.61312393 -154.625 274.09765625 C-152.73806524 268.64250131 -151.06532069 263.17045859 -149.5625 257.59765625 C-145.27190943 241.79103749 -140.25912714 226.18859944 -135.25 210.59765625 C-132.72794599 202.7408144 -130.38652986 194.84783629 -128.15283203 186.90454102 C-125.95593409 179.11413838 -123.61050648 171.37241816 -121.234375 163.63500977 C-119.73140884 158.73949761 -118.2603353 153.84032012 -116.875 148.91015625 C-117.75800781 149.67199219 -118.64101563 150.43382812 -119.55078125 151.21875 C-126.00537158 156.77619116 -132.49479077 162.27352814 -139.109375 167.640625 C-141.61608096 169.69768173 -144.08988239 171.78631458 -146.55566406 173.8918457 C-152.08232166 178.61067199 -157.69885046 183.17971166 -163.43286133 187.64404297 C-167.96164699 191.17508736 -172.42675628 194.77831496 -176.875 198.41015625 C-183.61366036 203.9031707 -190.38303997 209.35153598 -197.26416016 214.66552734 C-198.84051645 215.88351225 -200.41057062 217.10963972 -201.98046875 218.3359375 C-202.93566406 219.06167969 -203.89085937 219.78742188 -204.875 220.53515625 C-205.7 221.16679687 -206.525 221.7984375 -207.375 222.44921875 C-210.23085521 224.11810914 -212.60763509 224.55872456 -215.875 224.91015625 C-220.3251799 220.15984794 -222.4644711 214.49429584 -225 208.59765625 C-225.78263571 206.80660779 -226.56533826 205.01558783 -227.34980774 203.2253418 C-227.91999517 201.92408837 -228.48937794 200.62248212 -229.05802917 199.32055664 C-232.56104338 191.3120371 -236.16687955 183.34991019 -239.76437378 175.3835144 C-246.60812128 160.22529288 -253.39098344 145.04334804 -260.03735352 129.79736328 C-260.61879843 128.48737518 -261.23404025 127.19207575 -261.875 125.91015625 C-266.44622509 134.83377119 -270.81916769 143.80635606 -274.8203125 153.00146484 C-280.08636786 165.07520756 -285.82583933 176.94389875 -291.44113159 188.85809326 C-296.78427978 200.19769748 -302.12020276 211.54074766 -307.42938232 222.89630127 C-308.01667415 224.15242956 -308.60427842 225.40841181 -309.19219971 226.66424561 C-312.43359517 233.59129101 -315.61436997 240.53800413 -318.68701172 247.54150391 C-327.69142791 267.99188082 -339.20674844 282.32541247 -359.99609375 291.25 C-373.98851826 296.58496782 -391.96981237 297.45382663 -406.125 292.1640625 C-421.39845762 285.19988651 -429.82050825 274.98382123 -435.89599609 259.62457275 C-437.45422368 255.30418275 -438.50562734 250.90552964 -439.53125 246.43359375 C-439.76026001 245.46467194 -439.98927002 244.49575012 -440.22521973 243.49746704 C-440.94909165 240.42835249 -441.66240803 237.35690722 -442.375 234.28515625 C-443.08757512 231.24544934 -443.80234245 228.20626344 -444.51722717 225.167099 C-444.98408732 223.18159026 -445.45010398 221.195883 -445.91526794 219.2099762 C-447.51638609 212.38551404 -449.1851806 205.58159169 -450.90087891 198.78515625 C-452.54860625 192.23058774 -454.14050092 185.66243181 -455.73605347 179.09500122 C-456.33055244 176.64836209 -456.92611966 174.20198439 -457.52172852 171.75561523 C-459.30377043 164.42938277 -461.07408023 157.10154093 -462.78076172 149.75732422 C-466.74809601 132.71126622 -471.37952455 115.82282851 -475.875 98.91015625 C-478.09894643 101.72555088 -479.81252011 104.53588282 -481.41506958 107.74305725 C-481.90262222 108.71396805 -482.39017487 109.68487885 -482.89250183 110.68521118 C-483.41927017 111.74436737 -483.94603851 112.80352356 -484.48876953 113.89477539 C-485.05021164 115.01576126 -485.61165375 116.13674713 -486.19010925 117.29170227 C-487.72857391 120.36556177 -489.26343815 123.44116769 -490.79661417 126.51766515 C-492.41131668 129.75589073 -494.03026649 132.99199186 -495.64865112 136.2283783 C-498.37331495 141.67864283 -501.09487869 147.13044628 -503.81445312 152.58325195 C-506.9344316 158.83882105 -510.0584941 165.09233587 -513.18501389 171.34463793 C-516.53640134 178.04672962 -519.88471514 184.75035355 -523.23217535 191.45440745 C-524.18389524 193.35995273 -525.13616415 195.26522273 -526.08856583 197.17042732 C-535.24689299 215.4674402 -535.24689299 215.4674402 -544.00416756 233.95864201 C-555.22503293 258.12360651 -576.23206692 274.5694824 -600.86865234 283.64453125 C-615.7289457 288.82208325 -633.05293246 293.96496075 -648.875 292.91015625 C-649.535 292.58015625 -650.195 292.25015625 -650.875 291.91015625 C-651.25253393 286.87623113 -650.05989617 283.44314172 -647.7890625 279.05712891 C-647.46053787 278.39920349 -647.13201324 277.74127808 -646.79353333 277.06341553 C-645.7069726 274.89446411 -644.60364725 272.73451891 -643.5 270.57421875 C-642.73340237 269.05223738 -641.96787663 267.52971569 -641.20336914 266.00668335 C-639.18501764 261.99286985 -637.15239675 257.98645201 -635.11663818 253.98144531 C-633.07583477 249.96063221 -631.04812162 245.93323465 -629.01953125 241.90625 C-626.0189969 235.95283527 -623.01101948 230.00326711 -619.99609375 224.05712891 C-616.81210568 217.77754321 -613.65428585 211.48523931 -610.51683807 205.18226814 C-608.11260214 200.35886347 -605.61450835 195.59389907 -603.0625 190.84765625 C-598.25640866 181.81480445 -593.8543181 172.60757601 -589.47265625 163.36328125 C-586.35447304 156.79172439 -583.10590344 150.28961966 -579.82666016 143.79736328 C-578.54707547 141.25985953 -577.27652992 138.71787925 -576.0065918 136.17553711 C-573.73808666 131.63412198 -571.46880469 127.09311576 -569.19140625 122.55615234 C-565.53999956 115.27468628 -561.92096774 107.97833077 -558.33056641 100.66656494 C-556.09518031 96.11931465 -553.84938682 91.57724045 -551.60253906 87.03564453 C-550.44658133 84.69334351 -549.29491622 82.34891935 -548.14746094 80.00244141 C-546.4639651 76.56223345 -544.76476199 73.13017206 -543.0625 69.69921875 C-542.30900269 68.14577255 -542.30900269 68.14577255 -541.5402832 66.5609436 C-538.06381344 59.60481557 -533.89902735 53.82660055 -528.875 47.91015625 C-527.95478427 46.72540436 -527.0373041 45.5385111 -526.125 44.34765625 C-513.37379449 29.78461725 -491.94722514 19.90397915 -472.875 17.91015625 C-454.25130747 16.96411329 -437.27451202 18.17815171 -422.1875 30.41015625 C-412.15222537 40.02653557 -407.19545008 51.64841909 -403.875 64.91015625 C-403.62041016 65.91433594 -403.36582031 66.91851562 -403.10351562 67.953125 C-399.35734369 82.85048938 -395.98211952 97.82681492 -392.64331055 112.81958008 C-390.19524378 123.7434128 -387.48687551 134.59575825 -384.73220825 145.44580078 C-381.83146858 156.87839003 -379.13792976 168.33067402 -376.72631836 179.87792969 C-376.39966187 181.41175293 -376.39966187 181.41175293 -376.06640625 182.9765625 C-375.88279541 183.86287354 -375.69918457 184.74918457 -375.51000977 185.66235352 C-374.92757375 188.16453431 -374.92757375 188.16453431 -372.875 190.91015625 C-362.09872474 168.29349346 -351.3631366 145.6621986 -340.875 122.91015625 C-339.88541667 120.76432292 -338.89583333 118.61848958 -337.90625 116.47265625 C-337.41672852 115.41111328 -336.92720703 114.34957031 -336.42285156 113.25585938 C-329.28782638 97.78491063 -322.10622588 82.3363348 -314.875 66.91015625 C-314.51438477 66.14060608 -314.15376953 65.37105591 -313.78222656 64.57818604 C-311.46816462 59.64106536 -309.15032643 54.70574059 -306.82821655 49.7723999 C-306.0732924 48.16770894 -305.31923053 46.56261201 -304.56607056 44.95709229 C-303.51146747 42.70975497 -302.45343999 40.46406113 -301.39453125 38.21875 C-301.08261841 37.55237015 -300.77070557 36.8859903 -300.44934082 36.19941711 C-296.21766024 27.25281649 -296.21766024 27.25281649 -292.875 23.91015625 C-289.93473816 23.63600159 -289.93473816 23.63600159 -286.11791992 23.60375977 C-285.42340225 23.59543625 -284.72888458 23.58711273 -284.01332092 23.57853699 C-281.71064694 23.55438517 -279.40825608 23.54565787 -277.10546875 23.5390625 C-275.50604669 23.53009863 -273.9066255 23.52097683 -272.3072052 23.51170349 C-268.95046957 23.49519586 -265.59383388 23.48751043 -262.23706055 23.48461914 C-257.93928294 23.47923969 -253.64244725 23.44158659 -249.34493542 23.39587498 C-246.03946016 23.36610143 -242.73421135 23.3588955 -239.42861366 23.35789299 C-237.84457405 23.35368962 -236.26053384 23.34125045 -234.67662621 23.32037544 C-232.45713989 23.2934581 -230.23983093 23.29828538 -228.02026367 23.31079102 C-226.12735847 23.30318504 -226.12735847 23.30318504 -224.19621277 23.29542542 C-219.95622652 24.08021413 -218.53850125 25.58641125 -215.875 28.91015625 C-214.77156067 30.85502625 -214.77156067 30.85502625 -214.08911133 32.73706055 C-213.68706734 33.81330185 -213.68706734 33.81330185 -213.27690125 34.9112854 C-212.8710656 36.06121475 -212.8710656 36.06121475 -212.45703125 37.234375 C-212.15823563 38.04482269 -211.85944 38.85527039 -211.55158997 39.6902771 C-210.58432843 42.32166355 -209.63610676 44.95949459 -208.6875 47.59765625 C-208.01961753 49.42236211 -207.35017349 51.24649714 -206.67919922 53.07006836 C-205.34806219 56.6897771 -204.02235826 60.31139663 -202.70068359 63.93457031 C-200.36975826 70.30759156 -197.9495555 76.64426696 -195.5 82.97265625 C-195.11191162 83.98038086 -194.72382324 84.98810547 -194.32397461 86.02636719 C-192.32999735 91.19321481 -190.30890443 96.34854313 -188.265625 101.49609375 C-187.8432959 102.56335693 -187.4209668 103.63062012 -186.98583984 104.73022461 C-186.18364774 106.75377083 -185.37694216 108.77553578 -184.56494141 110.79516602 C-184.21093262 111.68776123 -183.85692383 112.58035645 -183.4921875 113.5 C-183.02208252 114.67357056 -183.02208252 114.67357056 -182.54248047 115.87084961 C-181.875 117.91015625 -181.875 117.91015625 -181.875 120.91015625 C-177.96727159 117.10317959 -174.36544665 113.11057866 -170.8125 108.97265625 C-170.24885742 108.32022949 -169.68521484 107.66780273 -169.10449219 106.99560547 C-166.27902953 103.72131863 -163.46836251 100.43518506 -160.67578125 97.1328125 C-155.55312564 91.08562754 -150.38328944 85.25552954 -144.69140625 79.7265625 C-142.74608115 77.85337611 -142.74608115 77.85337611 -140.8125 75.28515625 C-139.13283353 73.22621025 -137.57531815 71.73831007 -135.5625 70.03515625 C-131.270725 66.379498 -127.33709894 62.4141152 -123.375 58.41015625 C-118.36719128 53.36944951 -113.40047084 48.38944419 -107.875 43.91015625 C-106.3590625 42.67072266 -106.3590625 42.67072266 -104.8125 41.40625 C-83.55032142 24.24006504 -59.6619899 9.37789578 -32.875 2.91015625 C-32.12782715 2.7282373 -31.3806543 2.54631836 -30.61083984 2.35888672 C-6.05903594 -3.52181464 -6.05903594 -3.52181464 0 0 Z " fill="#3450BC" transform="translate(693.875,113.08984375)"/>
<path d="M0 0 C1.8329343 3.11216969 0.88471765 5.46492506 0.125 8.91015625 C-0.60774092 11.58428985 -1.44188747 14.21551282 -2.3125 16.84765625 C-3.82693053 21.48082503 -5.19593646 26.09406514 -6.34545898 30.83129883 C-7.32773709 34.68749893 -8.5232685 38.48077477 -9.6875 42.28515625 C-11.67251019 48.82540172 -13.58043066 55.3776871 -15.375 61.97265625 C-17.30421309 69.04774041 -19.46881545 76.02831264 -21.71264648 83.00927734 C-23.63826377 89.04416316 -25.29222164 95.10986818 -26.8828125 101.2421875 C-28.11649179 105.80291528 -29.52239704 110.29624139 -30.95166016 114.79858398 C-32.68685135 120.27268336 -34.32447761 125.77103685 -35.93164062 131.28393555 C-37.03981232 135.0806244 -38.16211029 138.87211378 -39.3125 142.65625 C-41.90441214 151.18845717 -44.38974298 159.73126424 -46.6875 168.34765625 C-49.37365179 178.38980085 -52.43832149 188.29815948 -55.54907227 198.21582031 C-59.30703306 210.22030689 -62.80590364 222.28762204 -66.10546875 234.42578125 C-68.62509761 243.67018461 -71.38710913 252.80240507 -74.35473633 261.91381836 C-76.47966688 268.48882259 -78.25748071 275.07264687 -79.7578125 281.81640625 C-81.18062383 285.75649915 -82.28423465 288.65397338 -85.875 290.91015625 C-91.02129715 291.81450039 -96.14757214 291.68135665 -101.3515625 291.6015625 C-102.88422293 291.59798389 -104.41689003 291.59662829 -105.94955444 291.59739685 C-109.15591846 291.59271227 -112.36127276 291.567922 -115.56738281 291.52758789 C-119.67793637 291.47653081 -123.78738461 291.46514772 -127.89821815 291.46742344 C-131.06042032 291.46660805 -134.22238065 291.45016172 -137.38450241 291.42841911 C-138.90035549 291.41887231 -140.41623595 291.41295997 -141.93211746 291.41073799 C-144.0484827 291.40423693 -146.16367241 291.37799041 -148.27978516 291.34594727 C-149.48381989 291.33451187 -150.68785461 291.32307648 -151.92837524 291.31129456 C-154.875 290.91015625 -154.875 290.91015625 -156.79794312 289.58677673 C-157.875 287.91015625 -157.875 287.91015625 -157.703125 284.6484375 C-156.89607476 281.0052909 -155.87178764 277.61312393 -154.625 274.09765625 C-152.73806524 268.64250131 -151.06532069 263.17045859 -149.5625 257.59765625 C-145.27190943 241.79103749 -140.25912714 226.18859944 -135.25 210.59765625 C-132.72794599 202.7408144 -130.38652986 194.84783629 -128.15283203 186.90454102 C-125.95593409 179.11413838 -123.61050648 171.37241816 -121.234375 163.63500977 C-119.73140884 158.73949761 -118.2603353 153.84032012 -116.875 148.91015625 C-117.75800781 149.67199219 -118.64101563 150.43382812 -119.55078125 151.21875 C-126.00537158 156.77619116 -132.49479077 162.27352814 -139.109375 167.640625 C-141.61608096 169.69768173 -144.08988239 171.78631458 -146.55566406 173.8918457 C-152.08232166 178.61067199 -157.69885046 183.17971166 -163.43286133 187.64404297 C-167.96164699 191.17508736 -172.42675628 194.77831496 -176.875 198.41015625 C-183.61366036 203.9031707 -190.38303997 209.35153598 -197.26416016 214.66552734 C-198.84051645 215.88351225 -200.41057062 217.10963972 -201.98046875 218.3359375 C-203.41326172 219.42455078 -203.41326172 219.42455078 -204.875 220.53515625 C-205.7 221.16679687 -206.525 221.7984375 -207.375 222.44921875 C-210.23085521 224.11810914 -212.60763509 224.55872456 -215.875 224.91015625 C-220.3251799 220.15984794 -222.4644711 214.49429584 -225 208.59765625 C-225.78263571 206.80660779 -226.56533826 205.01558783 -227.34980774 203.2253418 C-227.91999517 201.92408837 -228.48937794 200.62248212 -229.05802917 199.32055664 C-232.56091314 191.31233485 -236.16687335 183.3506475 -239.76437378 175.38461304 C-242.80165357 168.65449533 -245.82573994 161.9184295 -248.85253906 155.18359375 C-249.81318452 153.0476027 -250.77545458 150.91235229 -251.73828125 148.77734375 C-253.3131062 145.28369118 -254.87635366 141.78494466 -256.4375 138.28515625 C-257.10761108 136.80378174 -257.10761108 136.80378174 -257.79125977 135.29248047 C-258.19143311 134.39029785 -258.59160645 133.48811523 -259.00390625 132.55859375 C-259.34494385 131.79724121 -259.68598145 131.03588867 -260.03735352 130.25146484 C-261.5193145 126.10923055 -262.27924816 123.16762474 -260.90625 118.89672852 C-260.14828125 117.32749634 -260.14828125 117.32749634 -259.375 115.7265625 C-258.81683594 114.55029297 -258.25867188 113.37402344 -257.68359375 112.16210938 C-257.08119532 110.93206326 -256.47832986 109.70224577 -255.875 108.47265625 C-255.30910156 107.28994141 -254.74320312 106.10722656 -254.16015625 104.88867188 C-252.99674917 102.45765231 -251.82887643 100.02934344 -250.65429688 97.60375977 C-246.21318492 88.41147597 -241.96622717 79.12663073 -237.71875 69.84375 C-237.36353271 69.06757828 -237.00831543 68.29140656 -236.64233398 67.49171448 C-235.187467 64.31189686 -233.73271857 61.1320329 -232.28173828 57.95043945 C-227.66724769 47.83596378 -222.93005168 37.81297044 -217.875 27.91015625 C-215.55490269 30.0063114 -214.3483146 31.71107041 -213.30029297 34.64941406 C-213.02892517 35.39663727 -212.75755737 36.14386047 -212.47796631 36.91372681 C-212.1939093 37.72207977 -211.90985229 38.53043274 -211.6171875 39.36328125 C-211.31282776 40.20700287 -211.00846802 41.05072449 -210.69488525 41.92001343 C-210.04385003 43.72690626 -209.39650569 45.5351324 -208.75250244 47.34454346 C-207.07628132 52.05235207 -205.37245376 56.75016626 -203.671875 61.44921875 C-203.33950836 62.369841 -203.00714172 63.29046326 -202.66470337 64.23898315 C-200.20386277 71.04305211 -197.66250812 77.80701719 -195 84.53515625 C-194.4884436 85.82969727 -194.4884436 85.82969727 -193.96655273 87.15039062 C-192.93983055 89.73850913 -191.90801674 92.32454416 -190.875 94.91015625 C-189.18094958 99.15758695 -187.49495098 103.40811974 -185.8125 107.66015625 C-185.41756348 108.6445166 -185.02262695 109.62887695 -184.61572266 110.64306641 C-184.25655762 111.5510498 -183.89739258 112.4590332 -183.52734375 113.39453125 C-183.20757568 114.19600586 -182.88780762 114.99748047 -182.55834961 115.82324219 C-181.875 117.91015625 -181.875 117.91015625 -181.875 120.91015625 C-177.96727159 117.10317959 -174.36544665 113.11057866 -170.8125 108.97265625 C-170.24885742 108.32022949 -169.68521484 107.66780273 -169.10449219 106.99560547 C-166.27902953 103.72131863 -163.46836251 100.43518506 -160.67578125 97.1328125 C-155.55312564 91.08562754 -150.38328944 85.25552954 -144.69140625 79.7265625 C-142.74608115 77.85337611 -142.74608115 77.85337611 -140.8125 75.28515625 C-139.13283353 73.22621025 -137.57531815 71.73831007 -135.5625 70.03515625 C-131.270725 66.379498 -127.33709894 62.4141152 -123.375 58.41015625 C-118.36719128 53.36944951 -113.40047084 48.38944419 -107.875 43.91015625 C-106.3590625 42.67072266 -106.3590625 42.67072266 -104.8125 41.40625 C-83.55032142 24.24006504 -59.6619899 9.37789578 -32.875 2.91015625 C-32.12782715 2.7282373 -31.3806543 2.54631836 -30.61083984 2.35888672 C-6.05903594 -3.52181464 -6.05903594 -3.52181464 0 0 Z " fill="#5926B2" transform="translate(693.875,113.08984375)"/>
<path d="M0 0 C0.93392578 -0.01224609 1.86785156 -0.02449219 2.83007812 -0.03710938 C9.17597174 -0.05032081 15.01875466 0.70596026 21.1875 2.1875 C20.78480208 9.37410896 17.67473177 15.26024215 14.625 21.6875 C13.8052771 23.43897339 13.8052771 23.43897339 12.96899414 25.22583008 C9.59726457 32.3752882 6.05026069 39.36870403 2.24609375 46.296875 C-0.93937956 52.20165479 -3.74540258 58.30116774 -6.60571289 64.36791992 C-9.0737804 69.59269883 -11.59493101 74.78721016 -14.18579102 79.95214844 C-14.69661146 80.97217721 -14.69661146 80.97217721 -15.2177515 82.01281261 C-15.98819547 83.55118005 -16.75886808 85.089433 -17.52972794 86.62759209 C-19.4230245 90.40586648 -21.31470842 94.18494787 -23.20658779 97.96393204 C-24.8637675 101.27402833 -26.52116771 104.58401416 -28.17857361 107.89399719 C-32.55340296 116.63144397 -36.9262784 125.36986838 -41.29887295 134.10843372 C-44.6048156 140.71516941 -47.91151681 147.32152342 -51.2199707 153.92700195 C-54.13357992 159.74416191 -57.04571701 165.5620562 -59.95618778 171.38078707 C-61.4861823 174.43949169 -63.01683688 177.49786123 -64.54928398 180.55533791 C-73.4296094 198.2657561 -73.4296094 198.2657561 -81.91035366 216.16977406 C-93.14771085 240.36584759 -114.13096596 256.83260723 -138.80615234 265.921875 C-153.6664457 271.099427 -170.99043246 276.2423045 -186.8125 275.1875 C-187.4725 274.8575 -188.1325 274.5275 -188.8125 274.1875 C-189.19003393 269.15357488 -187.99739617 265.72048547 -185.7265625 261.33447266 C-185.39803787 260.67654724 -185.06951324 260.01862183 -184.73103333 259.34075928 C-183.6444726 257.17180786 -182.54114725 255.01186266 -181.4375 252.8515625 C-180.67090237 251.32958113 -179.90537663 249.80705944 -179.14086914 248.2840271 C-177.12251764 244.2702136 -175.08989675 240.26379576 -173.05413818 236.25878906 C-171.01333477 232.23797596 -168.98562162 228.2105784 -166.95703125 224.18359375 C-163.9564969 218.23017902 -160.94851948 212.28061086 -157.93359375 206.33447266 C-154.74960568 200.05488696 -151.59178585 193.76258306 -148.45433807 187.45961189 C-146.05010214 182.63620722 -143.55200835 177.87124282 -141 173.125 C-136.19390866 164.0921482 -131.7918181 154.88491976 -127.41015625 145.640625 C-124.29197304 139.06906814 -121.04340344 132.56696341 -117.76416016 126.07470703 C-116.48457547 123.53720328 -115.21402992 120.995223 -113.9440918 118.45288086 C-111.67558666 113.91146573 -109.40630469 109.37045951 -107.12890625 104.83349609 C-103.47749956 97.55203003 -99.85846774 90.25567452 -96.26806641 82.94390869 C-94.03268031 78.3966584 -91.78688682 73.8545842 -89.54003906 69.31298828 C-88.38408133 66.97068726 -87.23241622 64.6262631 -86.08496094 62.27978516 C-84.4014651 58.8395772 -82.70226199 55.40751581 -81 51.9765625 C-80.49766846 50.9409317 -79.99533691 49.9053009 -79.4777832 48.83828735 C-76.00131344 41.88215932 -71.83652735 36.1039443 -66.8125 30.1875 C-65.89228427 29.00274811 -64.9748041 27.81585485 -64.0625 26.625 C-48.35316575 8.68350833 -23.16555551 0.01579111 0 0 Z " fill="#36B0D7" transform="translate(231.8125,130.8125)"/>
<path d="M0 0 C2.32009731 2.09615515 3.5266854 3.80091416 4.57470703 6.73925781 C4.84607483 7.48648102 5.11744263 8.23370422 5.39703369 9.00357056 C5.8231192 10.21610001 5.8231192 10.21610001 6.2578125 11.453125 C6.56217224 12.29684662 6.86653198 13.14056824 7.18011475 14.00985718 C7.83114997 15.81675001 8.47849431 17.62497615 9.12249756 19.43438721 C10.79871868 24.14219582 12.50254624 28.84001001 14.203125 33.5390625 C14.53549164 34.45968475 14.86785828 35.38030701 15.21029663 36.3288269 C17.67113723 43.13289586 20.21249188 49.89686094 22.875 56.625 C23.2160376 57.48802734 23.5570752 58.35105469 23.90844727 59.24023438 C24.93516945 61.82835288 25.96698326 64.41438791 27 67 C28.69405042 71.2474307 30.38004902 75.49796349 32.0625 79.75 C32.45743652 80.73436035 32.85237305 81.7187207 33.25927734 82.73291016 C33.61844238 83.64089355 33.97760742 84.54887695 34.34765625 85.484375 C34.66742432 86.28584961 34.98719238 87.08732422 35.31665039 87.91308594 C36 90 36 90 36 93 C37.77433812 92.06915029 39.54435149 91.13005387 41.3125 90.1875 C42.29863281 89.66542969 43.28476562 89.14335937 44.30078125 88.60546875 C46.66471336 87.19942519 48.11493567 85.93656882 50 84 C60.72130915 77.12944461 73.15041038 72.08604763 85.09228516 67.72680664 C86.9366468 67.02413648 88.74153244 66.22043862 90.54296875 65.4140625 C94.13683067 63.94403085 97.50307107 63.10711834 101.3125 62.375 C102.52550781 62.13523438 103.73851562 61.89546875 104.98828125 61.6484375 C127.58824954 57.77964373 155.91521797 56.17995518 175.7734375 69.31640625 C179.71970763 72.30034033 183.6203694 75.37546863 187 79 C187 79.66 187 80.32 187 81 C186.16339844 81.08636719 185.32679688 81.17273438 184.46484375 81.26171875 C162.37350175 83.928337 142.55333421 94.15505002 124 106 C123.33919434 106.41427246 122.67838867 106.82854492 121.99755859 107.25537109 C111.41643547 113.88124123 111.41643547 113.88124123 103 123 C102.34 122.34 101.68 121.68 101 121 C100.11699219 121.76183594 99.23398437 122.52367187 98.32421875 123.30859375 C91.86962842 128.86603491 85.38020923 134.36337189 78.765625 139.73046875 C76.25891904 141.78752548 73.78511761 143.87615833 71.31933594 145.98168945 C65.79267834 150.70051574 60.17614954 155.26955541 54.44213867 159.73388672 C49.91335301 163.26493111 45.44824372 166.86815871 41 170.5 C34.26133964 175.99301445 27.49196003 181.44137973 20.61083984 186.75537109 C19.03448355 187.973356 17.46442938 189.19948347 15.89453125 190.42578125 C14.46173828 191.51439453 14.46173828 191.51439453 13 192.625 C12.175 193.25664062 11.35 193.88828125 10.5 194.5390625 C7.64414479 196.20795289 5.26736491 196.64856831 2 197 C-2.4501799 192.24969169 -4.5894711 186.58413959 -7.125 180.6875 C-7.90763571 178.89645154 -8.69033826 177.10543158 -9.47480774 175.31518555 C-10.04499517 174.01393212 -10.61437794 172.71232587 -11.18302917 171.41040039 C-14.68591314 163.4021786 -18.29187335 155.44049125 -21.88937378 147.47445679 C-24.92665357 140.74433908 -27.95073994 134.00827325 -30.97753906 127.2734375 C-31.93818452 125.13744645 -32.90045458 123.00219604 -33.86328125 120.8671875 C-35.4381062 117.37353493 -37.00135366 113.87478841 -38.5625 110.375 C-39.23261108 108.89362549 -39.23261108 108.89362549 -39.91625977 107.38232422 C-40.31643311 106.4801416 -40.71660645 105.57795898 -41.12890625 104.6484375 C-41.46994385 103.88708496 -41.81098145 103.12573242 -42.16235352 102.34130859 C-43.6443145 98.1990743 -44.40424816 95.25746849 -43.03125 90.98657227 C-42.27328125 89.41734009 -42.27328125 89.41734009 -41.5 87.81640625 C-40.94183594 86.64013672 -40.38367188 85.46386719 -39.80859375 84.25195312 C-39.20619532 83.02190701 -38.60332986 81.79208952 -38 80.5625 C-37.43410156 79.37978516 -36.86820312 78.19707031 -36.28515625 76.97851562 C-35.12174917 74.54749606 -33.95387643 72.11918719 -32.77929688 69.69360352 C-28.33818492 60.50131972 -24.09122717 51.21647448 -19.84375 41.93359375 C-19.31092407 40.76933617 -19.31092407 40.76933617 -18.76733398 39.58155823 C-17.312467 36.40174061 -15.85771857 33.22187665 -14.40673828 30.0402832 C-9.79224769 19.92580753 -5.05505168 9.90281419 0 0 Z " fill="#421F9C" transform="translate(476,141)"/>
<path d="M0 0 C13.44077046 3.52544799 22.21782149 12.05372381 29.61328125 23.49609375 C35.23791384 33.5099745 37.38853026 44.9196382 40 56 C40.24218262 57.02464355 40.48436523 58.04928711 40.73388672 59.10498047 C42.25357644 65.57051407 43.73440253 72.04460673 45.20703125 78.52099609 C49.10015095 95.60133961 53.10752534 112.64588668 57.43847656 129.62084961 C58.9468212 135.58663324 60.3581417 141.55773305 61.6328125 147.578125 C61.89505615 148.81151611 62.1572998 150.04490723 62.42749023 151.31567383 C62.92145371 153.66965654 63.40342071 156.02619984 63.87133789 158.38549805 C65.41847174 165.91914682 65.41847174 165.91914682 70 172 C68.89422607 173.22227295 68.89422607 173.22227295 67.76611328 174.46923828 C64.69472807 178.16491401 62.74900838 182.1503396 60.7421875 186.4921875 C60.35707001 187.30705124 59.97195251 188.12191498 59.57516479 188.96147156 C58.33311698 191.59534235 57.10385718 194.23495279 55.875 196.875 C55.0205146 198.69423816 54.16536815 200.51316597 53.30957031 202.33178711 C47.49008392 214.71919942 41.75247965 227.14422108 36.09179688 239.60498047 C34.41327259 243.28707422 32.7105785 246.9577067 31 250.625 C30.2265625 252.28402344 30.2265625 252.28402344 29.4375 253.9765625 C27.99758256 257.0050845 26.51043342 260.00610518 25 263 C18.20469284 261.81082125 14.93632819 257.22830172 11 252 C3.76199943 241.02778976 1.74375805 227.8527635 -1.125 215.25 C-1.64051405 213.03092126 -2.15743178 210.81216813 -2.67578125 208.59375 C-3.67545182 204.31150646 -4.66901343 200.02791455 -5.65893555 195.7434082 C-7.05088458 189.74721164 -8.52841688 183.77628765 -10.0390625 177.80908203 C-11.68679747 171.27758788 -13.27078482 164.73052658 -14.86105347 158.18484497 C-15.45555244 155.73820584 -16.05111966 153.29182814 -16.64672852 150.84545898 C-19.91568085 137.40632236 -19.91568085 137.40632236 -21.34375 131.265625 C-21.62206665 130.06921387 -21.62206665 130.06921387 -21.90600586 128.84863281 C-22.2590864 127.32991616 -22.61146778 125.81103678 -22.96313477 124.29199219 C-24.37465859 118.32780702 -25.95562334 112.41485974 -27.55859375 106.5 C-28.02490922 104.7688226 -28.49113556 103.03762119 -28.95727539 101.30639648 C-29.88664315 97.85662792 -30.83236761 94.41188279 -31.78686523 90.96899414 C-32.22046096 89.36620271 -32.65350856 87.76326287 -33.0859375 86.16015625 C-33.29395493 85.4266394 -33.50197235 84.69312256 -33.71629333 83.93737793 C-35.43049076 77.48945958 -34.80635215 73.05280914 -31.77734375 67.19921875 C-31.32528564 66.31314941 -30.87322754 65.42708008 -30.4074707 64.51416016 C-29.92238037 63.5813623 -29.43729004 62.64856445 -28.9375 61.6875 C-27.92805317 59.71046903 -26.92025523 57.73259535 -25.9140625 55.75390625 C-25.41680664 54.77824707 -24.91955078 53.80258789 -24.40722656 52.79736328 C-22.46711121 48.940694 -20.62765148 45.04168739 -18.8125 41.125 C-16.29223848 35.69196671 -13.66179089 30.33340638 -10.9375 25 C-6.79737082 16.86661983 -3.35864406 8.48057626 0 0 Z " fill="#305DBC" transform="translate(253,134)"/>
<path d="M0 0 C1.8329343 3.11216969 0.88471765 5.46492506 0.125 8.91015625 C-0.60774092 11.58428985 -1.44188747 14.21551282 -2.3125 16.84765625 C-3.82693053 21.48082503 -5.19593646 26.09406514 -6.34545898 30.83129883 C-7.32773709 34.68749893 -8.5232685 38.48077477 -9.6875 42.28515625 C-11.67251019 48.82540172 -13.58043066 55.3776871 -15.375 61.97265625 C-17.30164737 69.03833102 -19.4546552 76.01290867 -21.70825195 82.98071289 C-23.72236225 89.26214997 -25.3906845 95.5879176 -26.91796875 102.00390625 C-27.85318543 104.84391117 -28.56247561 106.08619335 -30.875 107.91015625 C-31.45765625 107.33007812 -32.0403125 106.75 -32.640625 106.15234375 C-46.14225755 93.28758066 -62.34450809 88.15728643 -80.83398438 88.49853516 C-82.87420982 88.53514207 -84.91260382 88.5395516 -86.953125 88.5390625 C-98.06877255 88.59829983 -108.98278264 89.82878638 -119.8125 92.34765625 C-121.31103516 92.68603516 -121.31103516 92.68603516 -122.83984375 93.03125 C-126.34226783 94.04546547 -129.54214512 95.43167175 -132.875 96.91015625 C-134.21156629 97.46442306 -135.5501909 98.01374737 -136.890625 98.55859375 C-151.22638332 104.23254623 -151.22638332 104.23254623 -164.9375 111.22265625 C-167.875 112.91015625 -167.875 112.91015625 -169.875 112.91015625 C-170.205 113.90015625 -170.535 114.89015625 -170.875 115.91015625 C-173.25 117.66015625 -173.25 117.66015625 -175.875 118.91015625 C-176.865 118.58015625 -177.855 118.25015625 -178.875 117.91015625 C-178.25753906 117.24371094 -177.64007812 116.57726562 -177.00390625 115.890625 C-172.69684484 111.20333595 -168.48662122 106.50197424 -164.5 101.53515625 C-160.1552023 96.15405521 -155.51779367 91.10279855 -150.796875 86.0546875 C-148.18598405 83.26082994 -145.65146481 80.40574299 -143.125 77.53515625 C-140.03710115 74.09011607 -136.83904317 71.05962229 -133.3046875 68.0859375 C-129.85590749 64.99756055 -126.63060075 61.69996368 -123.375 58.41015625 C-118.36718271 53.36946089 -113.40047101 48.38944433 -107.875 43.91015625 C-106.864375 43.08386719 -105.85375 42.25757813 -104.8125 41.40625 C-83.55032142 24.24006504 -59.6619899 9.37789578 -32.875 2.91015625 C-32.12782715 2.7282373 -31.3806543 2.54631836 -30.61083984 2.35888672 C-6.05903594 -3.52181464 -6.05903594 -3.52181464 0 0 Z " fill="#39B4D7" transform="translate(693.875,113.08984375)"/>
<path d="M0 0 C2.32009731 2.09615515 3.5266854 3.80091416 4.57470703 6.73925781 C4.98176628 7.86011528 4.98176628 7.86011528 5.39704895 9.00361633 C5.82312691 10.21612312 5.82312691 10.21612312 6.2578125 11.453125 C6.56212692 12.29671066 6.86644135 13.14029633 7.17997742 14.00944519 C7.83096877 15.8162 8.47826697 17.62428895 9.1222229 19.43356323 C10.79989394 24.14553202 12.50504832 28.84755171 14.20703125 33.55078125 C14.53960434 34.47202286 14.87217743 35.39326447 15.21482849 36.34242249 C17.65179528 43.0804015 20.17246251 49.77606712 22.8125 56.4375 C23.31910156 57.72479004 23.31910156 57.72479004 23.8359375 59.03808594 C25.32669503 62.81495726 26.83184357 66.58538345 28.35791016 70.34814453 C29.79399919 73.8934134 31.21006318 77.44624538 32.625 81 C33.07593018 82.09368896 33.52686035 83.18737793 33.99145508 84.31420898 C38.17482819 94.8929582 35.68371011 101.5496373 32 111.9375 C31.3965979 113.66178223 31.3965979 113.66178223 30.78100586 115.42089844 C28.14527729 122.90462239 25.3860792 130.3355065 22.5625 137.75 C19.04592842 146.98964993 15.80458064 156.30723823 12.6875 165.6875 C12.27894775 166.91629883 11.87039551 168.14509766 11.44946289 169.41113281 C9.14330042 176.40214701 6.92987789 183.41496518 4.80786133 190.46411133 C4 193 4 193 3 195 C1.16259766 194.81469727 1.16259766 194.81469727 -1 194 C-2.36181641 191.85913086 -2.36181641 191.85913086 -3.6015625 188.96484375 C-4.08254395 187.8655957 -4.56352539 186.76634766 -5.05908203 185.63378906 C-5.58108705 184.40170642 -6.10305858 183.16960959 -6.625 181.9375 C-7.18304257 180.65128346 -7.74282216 179.36581937 -8.30419922 178.08105469 C-9.21378657 175.99842177 -10.12198178 173.91526262 -11.02493286 171.82974243 C-14.57905995 163.62458012 -18.27166654 155.48260921 -21.95675659 147.33566284 C-24.97796175 140.64885608 -27.97891936 133.95291406 -30.98468018 127.25915527 C-31.94123986 125.13074529 -32.89969138 123.0031998 -33.85888672 120.87597656 C-35.43503572 117.37933221 -36.99980636 113.87768056 -38.5625 110.375 C-39.00932129 109.38725586 -39.45614258 108.39951172 -39.91650391 107.38183594 C-40.31659668 106.47981445 -40.71668945 105.57779297 -41.12890625 104.6484375 C-41.46994385 103.88708496 -41.81098145 103.12573242 -42.16235352 102.34130859 C-43.6443145 98.1990743 -44.40424816 95.25746849 -43.03125 90.98657227 C-42.27328125 89.41734009 -42.27328125 89.41734009 -41.5 87.81640625 C-40.94183594 86.64013672 -40.38367188 85.46386719 -39.80859375 84.25195312 C-39.20619532 83.02190701 -38.60332986 81.79208952 -38 80.5625 C-37.43410156 79.37978516 -36.86820312 78.19707031 -36.28515625 76.97851562 C-35.12174917 74.54749606 -33.95387643 72.11918719 -32.77929688 69.69360352 C-28.33818492 60.50131972 -24.09122717 51.21647448 -19.84375 41.93359375 C-19.31092407 40.76933617 -19.31092407 40.76933617 -18.76733398 39.58155823 C-17.312467 36.40174061 -15.85771857 33.22187665 -14.40673828 30.0402832 C-9.79224769 19.92580753 -5.05505168 9.90281419 0 0 Z " fill="#5326AB" transform="translate(476,141)"/>
<path d="M0 0 C0.66 0.33 1.32 0.66 2 1 C1.01 1.99 0.02 2.98 -1 4 C-1.66 3.67 -2.32 3.34 -3 3 C-2.01 2.01 -1.02 1.02 0 0 Z M-4 4 C-4 4.99 -4 5.98 -4 7 C-4.66 6.67 -5.32 6.34 -6 6 C-5.34 5.34 -4.68 4.68 -4 4 Z M-7 7 C-7 10 -7 10 -8.81665039 12.14135742 C-9.65188232 12.95451416 -10.48711426 13.7676709 -11.34765625 14.60546875 C-12.72147461 15.95801758 -12.72147461 15.95801758 -14.12304688 17.33789062 C-15.10242731 18.28821127 -16.08224788 19.23807852 -17.0625 20.1875 C-23.29055285 26.27081341 -29.39289503 32.33548901 -35 39 C-35.99475938 40.16148598 -36.98954992 41.32294529 -37.984375 42.484375 C-38.90694105 43.57233104 -39.82882718 44.66086405 -40.75 45.75 C-41.45189453 46.57564453 -41.45189453 46.57564453 -42.16796875 47.41796875 C-47.15324237 52.56398803 -47.15324237 52.56398803 -49 59 C-51.3125 60.75 -51.3125 60.75 -54 62 C-54.99 61.67 -55.98 61.34 -57 61 C-56.38253906 60.33355469 -55.76507812 59.66710937 -55.12890625 58.98046875 C-50.82184484 54.2931797 -46.61162122 49.59181799 -42.625 44.625 C-38.2802023 39.24389896 -33.64279367 34.1926423 -28.921875 29.14453125 C-26.31098405 26.35067369 -23.77646481 23.49558674 -21.25 20.625 C-17.92909045 16.91090444 -14.441728 13.5793108 -10.62890625 10.375 C-8.89099423 8.94714425 -8.89099423 8.94714425 -7 7 Z " fill="#3075C6" transform="translate(572,170)"/>
<path d="M0 0 C1.16015625 1.69921875 1.16015625 1.69921875 0.97265625 5.26171875 C0.16015625 8.69921875 0.16015625 8.69921875 -1.83984375 10.69921875 C-1.83984375 7.72921875 -1.83984375 4.75921875 -1.83984375 1.69921875 C-10.70072542 1.40710177 -19.10031829 2.25125003 -27.83984375 3.69921875 C-28.16984375 3.03921875 -28.49984375 2.37921875 -28.83984375 1.69921875 C-5.25326777 -3.71409377 -5.25326777 -3.71409377 0 0 Z " fill="#57DEE3" transform="translate(693.83984375,113.30078125)"/>
<path d="M0 0 C0.66 0.33 1.32 0.66 2 1 C1.01 1.99 0.02 2.98 -1 4 C-1.66 3.67 -2.32 3.34 -3 3 C-2.01 2.01 -1.02 1.02 0 0 Z M-4 4 C-4 4.99 -4 5.98 -4 7 C-4.66 6.67 -5.32 6.34 -6 6 C-5.34 5.34 -4.68 4.68 -4 4 Z M-7 7 C-7 10 -7 10 -8.46875 11.80932617 C-9.1390625 12.46392822 -9.809375 13.11853027 -10.5 13.79296875 C-11.221875 14.50517578 -11.94375 15.21738281 -12.6875 15.95117188 C-13.450625 16.68916016 -14.21375 17.42714844 -15 18.1875 C-15.763125 18.93708984 -16.52625 19.68667969 -17.3125 20.45898438 C-19.20180839 22.31286823 -21.09775206 24.15941069 -23 26 C-23 21.37650127 -20.12301566 19.20830811 -17 16 C-14.94839546 14.11176397 -12.86202559 12.28237438 -10.734375 10.48046875 C-8.91019463 8.96268408 -8.91019463 8.96268408 -7 7 Z " fill="#2F87CD" transform="translate(572,170)"/>
<path d="M0 0 C0 3.49173663 -0.62402763 4.18231497 -2.625 6.9375 C-6.36300652 12.33090941 -9.17913261 18.08818217 -12 24 C-12.66 24 -13.32 24 -14 24 C-11.51693892 14.812674 -6.43288609 6.89237795 0 0 Z " fill="#40CFDE" transform="translate(165,161)"/>
<path d="M0 0 C0.66 0 1.32 0 2 0 C2 2 2 2 -0.1875 4.5625 C-3.01309018 7.01134483 -4.35558268 7.68762137 -8 8 C-8 8.66 -8 9.32 -8 10 C-9.65 10.33 -11.3 10.66 -13 11 C-11.62056878 7.57643755 -10.43537979 6.3884036 -7.0625 4.9375 C-4.07773591 3.6375934 -2.28280105 2.29580847 0 0 Z " fill="#362C9E" transform="translate(526,225)"/>
<path d="M0 0 C0.66 0.33 1.32 0.66 2 1 C1.625 2.9375 1.625 2.9375 1 5 C0.01 5.495 0.01 5.495 -1 6 C-2.04808041 7.97522846 -3.0520411 9.97481509 -4 12 C-4.33 11.34 -4.66 10.68 -5 10 C-4.00390625 7.6171875 -4.00390625 7.6171875 -2.5625 4.875 C-1.85287109 3.50988281 -1.85287109 3.50988281 -1.12890625 2.1171875 C-0.75636719 1.41851562 -0.38382812 0.71984375 0 0 Z " fill="#382C9D" transform="translate(476,141)"/>
<path d="M0 0 C1.32 0.66 2.64 1.32 4 2 C1.1875 4.0625 1.1875 4.0625 -2 6 C-2.99 5.67 -3.98 5.34 -5 5 C-3.35 3.35 -1.7 1.7 0 0 Z " fill="#3467C9" transform="translate(520,226)"/>
<path d="M0 0 C0.66 0 1.32 0 2 0 C0.61811547 3.21043882 -0.92421903 5.04936365 -3.625 7.25 C-4.57246094 8.03117188 -4.57246094 8.03117188 -5.5390625 8.828125 C-6.02117188 9.21484375 -6.50328125 9.6015625 -7 10 C-5.15014033 6.06048404 -2.92434659 3.21678125 0 0 Z " fill="#3C84CC" transform="translate(555,186)"/>
<path d="M0 0 C0 3 0 3 -2 5.1875 C-2.66 5.785625 -3.32 6.38375 -4 7 C-4.99 6.67 -5.98 6.34 -7 6 C-4.69 4.02 -2.38 2.04 0 0 Z " fill="#439CD3" transform="translate(580,163)"/>
<path d="M0 0 C0.99 0.33 1.98 0.66 3 1 C2.25 7.75 2.25 7.75 0 10 C0 6.7 0 3.4 0 0 Z " fill="#47E2E4" transform="translate(692,114)"/>
<path d="M0 0 C0.99 0.33 1.98 0.66 3 1 C0.36 2.98 -2.28 4.96 -5 7 C-5 6.01 -5 5.02 -5 4 C-2.6875 1.75 -2.6875 1.75 0 0 Z " fill="#36A3D1" transform="translate(600,146)"/>
<path d="M0 0 C0.33 0.99 0.66 1.98 1 3 C-0.9375 5.6875 -0.9375 5.6875 -3 8 C-3.99 7.67 -4.98 7.34 -6 7 C-4.02 4.69 -2.04 2.38 0 0 Z " fill="#3E77CA" transform="translate(526,218)"/>
</svg>
